<svg width="12" height="6" viewBox="0 0 12 6" fill="none" xmlns="http://www.w3.org/2000/svg">
<path d="M10.7848 0.00999454C10.6923 0.0170699 10.6064 0.0571926 10.5448 0.121995L5.99982 4.36399L1.45482 0.121995C1.41694 0.0851904 1.37058 0.0569225 1.31925 0.0393359C1.26792 0.0217492 1.21297 0.0153058 1.15857 0.0204945C1.09073 0.0272829 1.02635 0.0519237 0.972936 0.0915464C0.919521 0.131169 0.879269 0.184142 0.856869 0.244295C0.834469 0.304447 0.830844 0.369301 0.846415 0.431302C0.861987 0.493304 0.896114 0.549899 0.944821 0.594494L5.74482 5.07449C5.77827 5.10581 5.81801 5.13066 5.86177 5.14762C5.90553 5.16458 5.95244 5.1733 5.99982 5.1733C6.0472 5.1733 6.09412 5.16458 6.13787 5.14762C6.18163 5.13066 6.22137 5.10581 6.25482 5.07449L11.0548 0.594494C11.1107 0.547454 11.1494 0.48525 11.1655 0.416626C11.1815 0.348002 11.1741 0.276408 11.1443 0.211906C11.1145 0.147405 11.0638 0.0932389 10.9993 0.0570224C10.9349 0.0208058 10.8598 0.00435939 10.7848 0.00999454Z" fill="white"/>
</svg>
