<svg width="50" height="50" viewBox="0 0 50 50" fill="none" xmlns="http://www.w3.org/2000/svg">
<rect width="50" height="50" rx="25" fill="white" fill-opacity="0.3"/>
<path d="M31.3975 9.00645L27.5598 9C23.2483 9 20.462 11.9944 20.462 16.6291V20.1467H16.6034C16.27 20.1467 16 20.4298 16 20.7791V25.8756C16 26.2249 16.2703 26.5077 16.6034 26.5077H20.462V39.3679C20.462 39.7172 20.7321 40 21.0655 40H26.0999C26.4333 40 26.7033 39.7168 26.7033 39.3679V26.5077H31.2149C31.5483 26.5077 31.8184 26.2249 31.8184 25.8756L31.8202 20.7791C31.8202 20.6114 31.7565 20.4508 31.6435 20.3321C31.5305 20.2134 31.3766 20.1467 31.2165 20.1467H26.7033V17.1648C26.7033 15.7316 27.0293 15.004 28.8116 15.004L31.3969 15.0031C31.73 15.0031 32 14.7199 32 14.371V9.63856C32 9.28993 31.7303 9.0071 31.3975 9.00645Z" fill="white"/>
</svg>
