<svg width="50" height="50" viewBox="0 0 50 50" fill="none" xmlns="http://www.w3.org/2000/svg">
<rect width="50" height="50" rx="25" fill="white" fill-opacity="0.3"/>
<path d="M31 9H19C13.478 9 9 13.478 9 19V31C9 36.522 13.478 41 19 41H31C36.522 41 41 36.522 41 31V19C41 13.478 36.522 9 31 9ZM38 31C38 34.86 34.86 38 31 38H19C15.14 38 12 34.86 12 31V19C12 15.14 15.14 12 19 12H31C34.86 12 38 15.14 38 19V31Z" fill="white"/>
<path d="M25 17C20.582 17 17 20.582 17 25C17 29.418 20.582 33 25 33C29.418 33 33 29.418 33 25C33 20.582 29.418 17 25 17ZM25 30C22.244 30 20 27.756 20 25C20 22.242 22.244 20 25 20C27.756 20 30 22.242 30 25C30 27.756 27.756 30 25 30Z" fill="white"/>
<path d="M33.6002 17.466C34.1889 17.466 34.6662 16.9887 34.6662 16.4C34.6662 15.8112 34.1889 15.334 33.6002 15.334C33.0114 15.334 32.5342 15.8112 32.5342 16.4C32.5342 16.9887 33.0114 17.466 33.6002 17.466Z" fill="white"/>
</svg>
