<svg width="50" height="50" viewBox="0 0 50 50" fill="none" xmlns="http://www.w3.org/2000/svg">
<rect width="50" height="50" rx="25" fill="white" fill-opacity="0.3"/>
<path d="M40 15.889C38.8958 16.3945 37.711 16.7374 36.4662 16.8905C37.7373 16.104 38.7102 14.8565 39.1713 13.3746C37.9791 14.1029 36.663 14.6318 35.2608 14.9185C34.1379 13.6807 32.5407 12.9097 30.7691 12.9097C27.3704 12.9097 24.6147 15.7573 24.6147 19.2674C24.6147 19.7652 24.669 20.2514 24.774 20.7163C19.66 20.4509 15.1252 17.9191 12.0902 14.0719C11.5597 15.0095 11.2578 16.102 11.2578 17.2682C11.2578 19.4746 12.3451 21.4214 13.9949 22.5604C12.9863 22.5256 12.0377 22.2389 11.2073 21.7623V21.8418C11.2073 24.9218 13.3294 27.4924 16.1432 28.0774C15.6276 28.2208 15.084 28.3002 14.5216 28.3002C14.1242 28.3002 13.7399 28.2595 13.3631 28.182C14.1467 30.71 16.4188 32.5483 19.1108 32.5987C17.0055 34.3034 14.351 35.3165 11.4678 35.3165C10.9711 35.3165 10.4818 35.2855 10 35.2294C12.7239 37.0367 15.9576 38.0905 19.4332 38.0905C30.7542 38.0905 36.9425 28.401 36.9425 19.9977L36.9218 19.1744C38.1309 18.2833 39.177 17.1636 40 15.889Z" fill="white"/>
</svg>
